<svg width="371" height="122.507" viewBox="0 0 320 105.667" class="css-1j8o68f">
  <path d="M19.035 33.589c3.989 1.021 6.533-.342 6.533-.342s21.898-9.672 25.208-11.455c3.311-1.782 7.129 0 7.129 0s14.345 7.89 16.122 8.911c1.787 1.021 3.818 5.093 1.699 9.252-2.119 4.155-8.398 1.357-8.398 1.357L53.32 33.505c-9.252 2.885-42.181 28.431-42.181 28.431L.276 59.559c-1.699-19.857 5.01-28.856 5.01-28.856s9.76 1.866 13.749 2.886zm76.125-2.378-9.589 2.378s-4.326.596-5.85 0c0 0 1.436 5.234-.938 7.88s-4.16 4.087-7.979 4.087-5.684-1.611-7.128-2.544c-1.445-.933-10.103-5.859-10.103-5.859s-11.965 4.922-39.63 27.079c0 0-3.398 2.207-1.191 5.684 0 0 2.036 2.881 6.113 0 4.072-2.891 12.812-8.828 12.812-8.828s.938-.596 1.528 0c.596.596.259.938-.166 1.357s-12.138 8.75-12.138 8.75-1.528 1.777.254 3.808c1.782 2.041 2.803 2.207 5.176.596 2.377-1.611 12.733-9.667 12.733-9.667s1.357-.85 2.036.078c.679.938.508 1.191 0 1.699s-11.626 8.573-11.626 8.573-1.782 1.777-.171 3.564 3.481 2.031 5.688.42 7.89-5.938 7.89-5.938 1.104-1.103 2.207-.254c1.104.85-.425 2.119-.425 2.119l-6.347 4.58s-1.714 1.533.83 3.486c2.549 1.953 2.632 1.445 4.839 0s5.263-3.818 5.263-3.818-4.584-9.169 1.357-13.163c0 0 2.378-1.689 5.259-1.777 0 0 0-4.756 4.844-6.196 4.833-1.445 6.532 1.187 6.532 1.187s1.533-2.28 4.58-2.119c3.057.166 4.814 1.357 4.814 1.357s1.475-2.124 4.951-1.953 6.532 4.58 6.532 4.58l11.631-2.29c.002 0 1.867-18.075-4.588-28.856zm-9.843 35.394s-.166-3.818-1.865-4.668-5.43-1.357-6.279 2.334l-.537.127s-.996-2.461-4.727-2.461c0 0-3.311-.254-3.223 3.652l-.938.078s-1.699-4.404-5.517-2.793c-3.818 1.611-3.652 4.326-2.285 7.383 0 0-.664.508-.889.508-.215 0-2.002-3.057-4.717-1.699 0 0-3.735.43-2.119 7.216 1.611 6.787 1.523 5.771 1.523 5.771s.938 4.16 4.59 2.969c3.643-1.191 3.135-4.16 2.969-5.01 0 0 3.983 2.979 6.112 2.129 2.119-.85 3.135-2.637 2.793-6.201 0 0 1.699 3.311 4.756 2.373 3.057-.928 2.803-3.984 2.969-4.403 0 0 1.104 2.372 3.652 1.61 2.541-.771 3.136-3.993 3.732-8.915z" xmlns="http://www.w3.org/2000/svg" fill="#559f36"/>
  <path d="M174.843 17.835h13.376c2.943 6.866 3.122 14.892 3.122 22.293 0 12.842-8.026 22.74-21.046 22.74-6.331 0-11.414-3.032-14.625-8.472-3.12 5.35-8.382 8.472-14.624 8.472-12.663 0-21.046-8.65-21.046-20.956V17.835h13.377v24.077c0 4.994 2.407 8.56 7.669 8.56 5.35 0 7.936-3.477 7.936-8.56V17.835h13.377v24.077c0 5.083 2.586 8.56 7.936 8.56 5.886 0 7.67-5.35 7.67-10.344 0-6.955-.357-15.784-3.122-22.293zm36.644 16.943c1.338.446 2.854.802 4.46.98 1.604.268 3.12.358 4.547.358 1.784 0 6.332-.357 6.332-2.943 0-2.765-3.924-2.854-5.886-2.854-3.924 0-7.312.892-9.453 4.459zm25.237 13.733v12.484c-4.994 1.16-9.988 1.962-15.16 1.962-14.179 0-24.701-8.293-24.701-22.65 0-14.18 10.166-22.918 23.631-22.918 9.185 0 19.797 4.37 19.797 14.803 0 10.344-11.236 14.179-19.886 14.179-3.3 0-6.599-.892-9.631-2.14 1.784 4.993 7.134 5.796 11.771 5.796 2.408 0 4.816-.09 7.223-.446 2.23-.178 4.816-.446 6.956-1.07zM248.221 0h13.376v62.422h-13.376V0zm37.893 40.128c0 6.6 3.3 10.345 9.987 10.345 1.873 0 3.567-.268 4.905-.892 2.497-.981 4.191-2.854 5.083-5.44.357-1.248.535-2.586.535-4.013s-.178-2.764-.535-4.012c-.981-2.765-2.497-4.28-5.083-5.53-1.338-.534-3.032-.802-4.905-.802-6.688 0-9.987 3.745-9.987 10.344zm0 17.835v22.294h-13.377V40.128c0-14.268 10.077-22.74 23.543-22.74 13.733 0 23.72 9.007 23.72 22.651 0 12.663-9.541 22.83-22.204 22.83-2.586 0-4.816-.447-6.688-1.339a13.483 13.483 0 0 1-4.994-3.567z" fill="#111"/>
  <path d="M126.77 104.378c-.805.736-1.895 1.105-3.273 1.105H120v-15.34h2.986c.818 0 1.5.105 2.045.317s.982.498 1.31.86.555.78.684 1.257.195.975.195 1.493c0 .56-.167 1.087-.501 1.585s-.78.964-1.34 1.401a64.006 64.006 0 0 0 .859.532c.177.15.375.33.593.542s.42.457.604.736.337.596.46.951.184.75.184 1.186c0 .764-.113 1.419-.338 1.964s-.549 1.015-.971 1.411zm-3.293-13.212h-2.413v5.522h2.617c.369 0 .706-.069 1.013-.205s.573-.324.798-.562.401-.514.531-.828.195-.655.195-1.023c0-.259-.038-.56-.113-.9s-.215-.657-.42-.95-.483-.543-.838-.747-.81-.307-1.37-.307zm.123 6.545h-2.536v6.688h2.188c.45 0 .9-.055 1.35-.164s.859-.292 1.227-.552.665-.6.89-1.023.337-.947.337-1.575c0-.572-.089-1.073-.266-1.503s-.422-.78-.736-1.053-.682-.477-1.104-.614-.873-.204-1.35-.204zm7.77 7.772v-15.34h7.527v1.186h-6.463v5.83h6.402v.94h-6.402v6.197h6.606v1.187h-7.67zm17.547-3.866c-.013.682-.079 1.278-.194 1.79s-.314.933-.594 1.268-.647.583-1.104.746-1.033.246-1.728.246c-1.2 0-2.073-.335-2.618-1.003s-.818-1.684-.818-3.047V94.05c0-1.364.276-2.38.828-3.048S144.185 90 145.522 90c1.2 0 2.058.334 2.577 1.002s.79 1.684.818 3.048l.02.94h-.94l-.02-1.186c0-.34-.035-.685-.103-1.033s-.191-.664-.368-.95-.427-.52-.747-.696-.746-.266-1.278-.266c-.519 0-.951.082-1.299.245s-.624.389-.828.675-.345.624-.42 1.013-.112.808-.112 1.258l.04 7.67c0 .94.175 1.676.522 2.208s.985.798 1.913.798c.532 0 .971-.072 1.319-.215s.62-.345.818-.603.338-.573.42-.941.122-.77.122-1.207l.02-1.33h.941zm11.534 3.866-1.125-4.52h-4.99l-1.125 4.52h-1.023l4.234-15.34h.88l4.213 15.34h-1.064zm-3.559-14.379-2.31 8.877h4.478zm11.41 14.563c-1.254 0-2.225-.34-2.914-1.023s-1.032-1.69-1.032-3.027V90.143h1.104v11.413c0 .327.044.672.133 1.033s.242.688.46.981.508.535.87.726.807.287 1.339.287c.586 0 1.07-.085 1.452-.256s.688-.406.92-.706.396-.654.491-1.063.144-.846.144-1.31V90.144h1.084v11.474c0 1.363-.33 2.38-.992 3.047s-1.68 1.003-3.058 1.003zm12.127 0c-.668 0-1.26-.09-1.78-.266s-.953-.46-1.308-.849-.617-.897-.788-1.524-.24-1.383-.214-2.27h1.227c0 .437.02.89.061 1.36s.15.9.327 1.289.447.705.808.95.863.369 1.504.369c.546 0 1.009-.082 1.39-.246s.693-.381.931-.654.406-.593.501-.961.143-.75.143-1.146c0-.463-.085-.869-.255-1.217s-.395-.657-.675-.93-.607-.515-.982-.726-.767-.4-1.176-.563c-.655-.258-1.227-.514-1.718-.767s-.893-.535-1.207-.848-.548-.678-.705-1.095-.236-.923-.236-1.523c0-1.364.358-2.38 1.074-3.048S179.094 90 180.43 90c1.16 0 2.076.337 2.751 1.012s1.013 1.688 1.013 3.038v1.124h-1.146v-1.227c0-.422-.05-.815-.153-1.176s-.262-.678-.48-.95-.495-.489-.83-.645-.731-.235-1.196-.235c-1.09 0-1.871.286-2.341.859s-.686 1.343-.645 2.311c.015.422.092.784.235 1.084s.335.562.573.787.526.427.86.604.705.355 1.114.531c.477.205.95.423 1.421.655s.91.518 1.32.859c.409.355.746.767 1.012 1.237s.399 1.054.399 1.75c0 1.349-.344 2.361-1.033 3.036s-1.647 1.013-2.874 1.013zm7.362-.184v-15.34h7.527v1.186h-6.463v5.83h6.401v.94h-6.401v6.197h6.606v1.187h-7.67zm27.956 0h-1.002l-2.802-13.704-2.782 13.704h-.982l-3.518-15.34h1.084l2.802 13.376 3.089-13.376h.654l3.068 13.376 2.802-13.376h1.105zm6.481 0v-15.34h7.527v1.186h-6.463v5.83h6.401v.94h-6.401v6.197h6.606v1.187h-7.67zm23.6 0-.02-7.138h-5.604l.02 7.138h-1.186v-15.34h1.186l-.02 7.118h5.604l.02-7.118h1.207v15.34h-1.207zm5.193 0v-15.34h7.527v1.186h-6.463v5.83h6.402v.94h-6.402v6.197h6.606v1.187h-7.67zm11.288 0v-15.34h1.105v14.235h5.215v1.105h-6.32zm13.048-5.768h-2.209v5.768h-1.186v-15.34h3.702c1.35 0 2.41.412 3.18 1.238S280 93.402 280 94.97c0 .695-.113 1.332-.338 1.912s-.542 1.081-.95 1.504-.898.75-1.463.981-1.197.348-1.892.348zm-.102-8.529h-2.107v7.404h1.902c.696 0 1.281-.1 1.76-.296s.861-.464 1.155-.798.504-.723.634-1.166.194-.91.194-1.4c0-.505-.048-.986-.143-1.443s-.273-.856-.532-1.196-.62-.61-1.084-.808-1.056-.297-1.78-.297z" fill="#559f36"/>
</svg>

